<?xml version="1.0" encoding="utf-8"?>
<!-- Generator: Adobe Illustrator 23.0.3, SVG Export Plug-In . SVG Version: 6.00 Build 0)  -->
<svg version="1.1" xmlns="http://www.w3.org/2000/svg" xmlns:xlink="http://www.w3.org/1999/xlink" x="0px" y="0px" width="174px"
	 height="150px" viewBox="0 0 174 150" style="enable-background:new 0 0 174 150;" xml:space="preserve">
<style type="text/css">
	.st0{fill:#FFFFFF;}
	.st1{fill:#FF8F3D;}
	.st2{clip-path:url(#SVGID_2_);}
</style>
<g id="BACKGROUND">
</g>
<g id="OBJECTS">
	<g>
		<g>
			<g>
				<g>
					
						<ellipse transform="matrix(0.7071 -0.7071 0.7071 0.7071 -32.8077 98.9947)" class="st0" cx="103.1" cy="89.1" rx="40.5" ry="40.5"/>
					<path class="st1" d="M103.1,131.1c-23.2,0-42-18.9-42-42s18.9-42,42-42c23.2,0,42,18.9,42,42S126.3,131.1,103.1,131.1z
						 M103.1,50.2c-21.5,0-38.9,17.5-38.9,38.9S81.6,128,103.1,128c21.5,0,38.9-17.5,38.9-38.9S124.5,50.2,103.1,50.2z"/>
				</g>
				<path class="st0" d="M128.7,98.4c-23.2,18-56.6,13.9-74.6-9.3c-13.9-17.9-14.6-41.9-3.5-60.2c-0.7,0.5-1.3,1-2,1.5
					c-27.3,21.2-32.2,60.6-11,87.9c21.2,27.3,60.6,32.2,87.9,11c19.6-15.2,27.7-39.8,22.8-62.6C145.9,78.8,139.2,90.2,128.7,98.4z"
					/>
				<g>
					<defs>
						<path id="SVGID_1_" d="M128.7,98.4c-23.2,18-56.6,13.9-74.6-9.3c-13.9-17.9-14.6-41.9-3.5-60.2c-0.7,0.5-1.3,1-2,1.5
							c-27.3,21.2-32.2,60.6-11,87.9c21.2,27.3,60.6,32.2,87.9,11c19.6-15.2,27.7-39.8,22.8-62.6C145.9,78.8,139.2,90.2,128.7,98.4z
							"/>
					</defs>
					<clipPath id="SVGID_2_">
						<use xlink:href="#SVGID_1_"  style="overflow:visible;"/>
					</clipPath>
					<g class="st2">
						
							<ellipse transform="matrix(0.9763 -0.2164 0.2164 0.9763 -27.6611 18.5649)" class="st1" cx="70.9" cy="135.6" rx="10.3" ry="10.3"/>
						
							<ellipse transform="matrix(0.9825 -0.1864 0.1864 0.9825 -23.2033 24.4062)" class="st1" cx="118.2" cy="135.6" rx="10.3" ry="10.3"/>
						<circle class="st1" cx="47.7" cy="107.7" r="10.3"/>
						
							<ellipse transform="matrix(0.7071 -0.7071 0.7071 0.7071 -47.8902 98.5047)" class="st1" cx="95" cy="107.1" rx="10.3" ry="10.3"/>
						
							<ellipse transform="matrix(0.7071 -0.7071 0.7071 0.7071 -34.0527 131.9112)" class="st1" cx="142.2" cy="107.1" rx="10.3" ry="10.3"/>
						
							<ellipse transform="matrix(0.7071 -0.7071 0.7071 0.7071 -49.0236 39.9426)" class="st1" cx="23.7" cy="79.1" rx="10.3" ry="10.3"/>
						<circle class="st1" cx="47.7" cy="50" r="10.3"/>
					</g>
				</g>
				<g>
					<path class="st1" d="M87.1,144c-2.7,0-5.4-0.2-8.1-0.5c-17-2.1-32.2-10.7-42.7-24.3c-10.5-13.5-15.2-30.3-13-47.4
						c2.1-17,10.7-32.2,24.3-42.7c0.7-0.5,1.4-1,2-1.5c0.6-0.4,1.4-0.4,2,0.1c0.5,0.5,0.7,1.3,0.3,2c-11,18.2-9.7,41.7,3.4,58.5
						C63.8,99,75.9,106,89.6,107.7c13.7,1.7,27.2-2,38.1-10.5l0,0c9.9-7.7,16.6-18.6,19-30.9c0.1-0.7,0.8-1.3,1.5-1.3c0,0,0,0,0,0
						c0.7,0,1.4,0.5,1.5,1.2c5.1,23.9-4,49.1-23.3,64.2C115,139.3,101.3,144,87.1,144z M45.8,34.8c-10.7,9.8-17.5,22.9-19.4,37.5
						c-2,16.2,2.4,32.2,12.4,45.1c10,12.9,24.4,21.1,40.6,23.1c16.2,2,32.2-2.4,45.1-12.4c16.4-12.8,25.1-33.3,23.3-53.7
						c-3.4,10-9.7,18.9-18.2,25.4l0,0c-11.5,9-25.9,12.9-40.4,11.1c-14.5-1.8-27.4-9.2-36.4-20.7C40.5,74.3,38,52.9,45.8,34.8z"/>
				</g>
				<g>
					<g>
						<g>
							<g>
								<path class="st0" d="M48.7,85.9c-1-1.9-1.4-3.9-1.4-6.1c-12.6-13.4-12.7-34.5,0.1-48.1c13.3-14,35.5-14.6,49.6-1.3
									c15.5,14.7,12.7,38.6-3,53.3C82.5,94.5,57.2,102.4,48.7,85.9z"/>
								<path class="st1" d="M65.8,96.9c-1.5,0-3.1-0.1-4.6-0.4c-6.3-1.1-11.1-4.5-13.8-10l0,0c-1-1.9-1.5-3.9-1.6-6.1
									c-12.8-14.1-12.6-35.9,0.5-49.8c6.7-7.1,15.8-11.1,25.6-11.4c9.8-0.3,19.1,3.3,26.2,10c7,6.6,10.8,15.5,10.8,25.1
									c0,11.1-5.1,22.2-13.8,30.5C88.4,91.2,76.5,96.9,65.8,96.9z M50.1,85.1c2.4,4.6,6.3,7.4,11.6,8.3
									c10.8,1.9,24.1-4.2,31.1-10.8c8.1-7.7,12.8-17.9,12.8-28.2c0-8.9-3.4-16.8-9.8-22.9c-6.5-6.2-15-9.4-23.9-9.2
									c-8.9,0.2-17.3,3.9-23.4,10.4c-12.2,12.8-12.2,33-0.1,45.9c0.3,0.3,0.4,0.7,0.4,1.1C48.9,81.7,49.3,83.5,50.1,85.1
									L50.1,85.1z"/>
							</g>
						</g>
						<g>
							<path class="st1" d="M56,48.3c-2.6,0-5.1-0.8-7-2.5c-2.6-2.2-3.9-5.5-3.6-9.1c0.3-4.2,2.7-8.2,6.2-10.4
								c0.7-0.5,1.7-0.2,2.2,0.5c0.5,0.7,0.2,1.7-0.5,2.2c-2.6,1.7-4.5,4.8-4.7,8c-0.2,2.6,0.7,4.9,2.5,6.5c2.4,2.1,6.5,2.3,9.3,0.5
								c1.4-0.9,2.5-2.7,2.7-4.2c0.1-0.9-0.2-1.6-0.7-2.2c-0.6-0.6-1.5-0.8-2.4-0.6c-1,0.2-1.8,0.8-2.2,1.7
								c-0.3,0.8-1.3,1.1-2.1,0.8c-0.8-0.3-1.1-1.3-0.8-2.1c0.8-1.8,2.5-3.1,4.4-3.5c1.9-0.4,3.8,0.2,5.1,1.5
								c1.3,1.2,1.9,2.9,1.7,4.7c-0.2,2.5-1.9,5.1-4.1,6.5C60.2,47.7,58.1,48.2,56,48.3z"/>
						</g>
						<g>
							<g>
								<path class="st1" d="M52.9,75.8c-0.9,0-1.7-0.1-2.6-0.4c-0.8-0.3-1.3-1.1-1-2c0.3-0.8,1.1-1.3,2-1c1.5,0.5,3.2,0.3,4.7-0.5
									c1.5-0.8,2.7-2.1,3.2-3.5c0.3-0.8,1.1-1.3,2-1c0.8,0.3,1.3,1.1,1,2c-0.7,2.2-2.4,4.2-4.7,5.4C56,75.4,54.5,75.8,52.9,75.8z"
									/>
							</g>
							<g>
								<path class="st1" d="M75.4,64.2c-0.9,0-1.7-0.1-2.6-0.4c-0.8-0.3-1.3-1.1-1-2c0.3-0.8,1.1-1.3,2-1c1.5,0.5,3.2,0.3,4.7-0.5
									c1.5-0.8,2.7-2.1,3.2-3.5c0.3-0.8,1.1-1.3,2-1c0.8,0.3,1.3,1.1,1,2c-0.7,2.2-2.4,4.2-4.7,5.4C78.5,63.8,77,64.2,75.4,64.2z"
									/>
							</g>
							<g>
								<path class="st1" d="M68.4,78.1c-0.9,0-1.7-0.1-2.6-0.4c-0.8-0.3-1.3-1.1-1-2c0.3-0.8,1.1-1.3,2-1c1.5,0.5,3.2,0.3,4.7-0.5
									c1.5-0.8,2.7-2.1,3.2-3.5c0.3-0.8,1.1-1.3,2-1c0.8,0.3,1.3,1.1,1,2c-0.7,2.2-2.4,4.2-4.7,5.4C71.4,77.7,69.9,78.1,68.4,78.1
									z"/>
							</g>
						</g>
						<g>
							<path class="st0" d="M35.8,90.5c16.3-8.4,36.4-5.8,50.1,11.6c-2.5,3.3-5.4,7.2-5.4,7.2"/>
							<path class="st1" d="M81.7,110.2l-2.5-1.9c0,0,2.3-3.1,4.7-6.2C71.6,87.3,53.1,83.3,36.5,91.9c-0.8,0.4-1.7,0.1-2.1-0.7
								c-0.4-0.8-0.1-1.7,0.7-2.1c18.4-9.5,38.8-4.8,52,12c0.4,0.6,0.4,1.3,0,1.9C84.6,106.4,81.7,110.2,81.7,110.2z"/>
						</g>
						<g>
							<path class="st0" d="M96.1,45.7c9.6-13.3,21.4,12.3,4.1,12.3"/>
							<path class="st1" d="M100.3,59.5C100.3,59.5,100.3,59.5,100.3,59.5c-0.9,0-1.6-0.7-1.6-1.6c0-0.9,0.7-1.6,1.6-1.6
								c0,0,0,0,0,0c4,0,6.5-1.5,7.1-4.4c0.7-3.1-1.2-7.1-3.8-8.3c-2.6-1.1-4.8,0.9-6.2,2.9c-0.5,0.7-1.5,0.9-2.2,0.3
								c-0.7-0.5-0.9-1.5-0.3-2.2c4.1-5.7,8.3-4.6,10-3.9c4,1.8,6.6,7.2,5.6,11.8C110,54.7,108.1,59.5,100.3,59.5z"/>
						</g>
					</g>
					<g>
						<g>
							<g>
								<path class="st0" d="M115.5,96.6c-13,10.4-28.1,18-44.3,22.1c-6.2,1.6-12.4-2.6-13.4-8.9c0-0.1,0-0.1,0-0.2
									c-0.8-5.5,2.7-10.7,8.1-12.1c7.7-2,28-9.1,37.7-19.1"/>
								<path class="st1" d="M68.5,120.6c-2.4,0-4.8-0.7-6.8-2.1c-2.9-1.9-4.9-5-5.4-8.5l0-0.2c-1-6.3,3-12.3,9.2-13.9
									c6.5-1.7,27.3-8.7,37-18.7c0.6-0.6,1.6-0.6,2.2,0c0.6,0.6,0.6,1.6,0,2.2C94.5,90,73.5,97.1,66.2,99
									c-4.7,1.2-7.6,5.7-6.9,10.4l0,0.2c0.4,2.6,1.9,4.9,4.1,6.4c2.2,1.4,4.9,1.9,7.4,1.2c16.1-4.1,30.7-11.5,43.7-21.8
									c0.7-0.5,1.7-0.4,2.2,0.2c0.5,0.7,0.4,1.7-0.2,2.2c-13.3,10.7-28.4,18.2-44.8,22.4C70.6,120.5,69.6,120.6,68.5,120.6z"/>
							</g>
						</g>
						<g>
							<path class="st1" d="M57.9,108c-0.6,0-1.2-0.4-1.5-1c-0.3-0.8,0.1-1.7,1-2l9.7-3.4c0.8-0.3,1.7,0.1,2,1c0.3,0.8-0.1,1.7-1,2
								l-9.7,3.4C58.3,108,58.1,108,57.9,108z"/>
						</g>
						<g>
							<path class="st1" d="M59,113.3c-0.6,0-1.2-0.4-1.5-1c-0.3-0.8,0.1-1.7,0.9-2l10.5-3.7c0.8-0.3,1.7,0.1,2,0.9
								c0.3,0.8-0.1,1.7-0.9,2l-10.5,3.7C59.4,113.3,59.2,113.3,59,113.3z"/>
						</g>
						<g>
							<path class="st1" d="M62.6,117.9c-0.6,0-1.2-0.4-1.5-1c-0.3-0.8,0.1-1.7,0.9-2l8.8-3.3c0.8-0.3,1.7,0.1,2,0.9
								c0.3,0.8-0.1,1.7-0.9,2l-8.8,3.3C62.9,117.9,62.8,117.9,62.6,117.9z"/>
						</g>
					</g>
				</g>
			</g>
			<g>
				<g>
					<path class="st0" d="M153.1,48.1c0.3,0,0.6-0.1,0.8-0.3c0.4-0.3,0.6-0.8,0.5-1.3l-1-6.1c-0.1-0.3,0.1-0.7,0.3-0.9l4.4-4.3
						c0.4-0.4,0.5-0.9,0.3-1.4c-0.2-0.5-0.6-0.9-1.1-0.9l-6.1-0.9c-0.3,0-0.6-0.3-0.8-0.6l-2.7-5.6c-0.2-0.5-0.7-0.8-1.2-0.8
						c-0.5,0-1,0.3-1.2,0.8l-2.7,5.6c-0.2,0.3-0.4,0.5-0.8,0.6l-6.1,0.9c-0.5,0.1-0.9,0.4-1.1,0.9c-0.2,0.5,0,1,0.3,1.4l4.4,4.3
						c0.2,0.2,0.4,0.6,0.3,0.9l-1,6.1c-0.1,0.5,0.1,1,0.5,1.3c0.4,0.3,1,0.4,1.4,0.1L146,45c0.3-0.2,0.7-0.2,1,0l5.5,2.9
						C152.6,48,152.8,48.1,153.1,48.1z"/>
					<path class="st0" d="M161.3,108.5c0.2-0.2,0.3-0.5,0.2-0.8c-0.1-0.3-0.3-0.5-0.6-0.5l-3.2-0.5c-0.1,0-0.3-0.1-0.3-0.2l-1.4-2.9
						c-0.1-0.3-0.4-0.4-0.7-0.4c-0.3,0-0.6,0.2-0.7,0.4l-1.4,2.9c-0.1,0.1-0.2,0.2-0.3,0.2l-3.2,0.5c-0.3,0-0.5,0.3-0.6,0.5
						c-0.1,0.3,0,0.6,0.2,0.8l2.3,2.2c0.1,0.1,0.2,0.3,0.1,0.4l-0.5,3.2c-0.1,0.3,0.1,0.6,0.3,0.8c0.2,0.2,0.6,0.2,0.8,0.1l2.8-1.5
						c0.1-0.1,0.3-0.1,0.4,0l2.8,1.5c0.1,0.1,0.2,0.1,0.4,0.1c0.2,0,0.3-0.1,0.5-0.2c0.2-0.2,0.4-0.5,0.3-0.8l-0.5-3.2
						c0-0.1,0-0.3,0.1-0.4L161.3,108.5z"/>
					<path class="st0" d="M105.2,11.6l-3.2-0.5c-0.1,0-0.3-0.1-0.3-0.2L100.3,8c-0.1-0.3-0.4-0.4-0.7-0.4c-0.3,0-0.6,0.2-0.7,0.4
						l-1.4,2.9c-0.1,0.1-0.2,0.2-0.3,0.2l-3.2,0.5c-0.3,0-0.5,0.3-0.6,0.5c-0.1,0.3,0,0.6,0.2,0.8l2.3,2.2c0.1,0.1,0.2,0.3,0.1,0.4
						l-0.5,3.2c-0.1,0.3,0.1,0.6,0.3,0.8c0.2,0.2,0.6,0.2,0.8,0.1l2.8-1.5c0.1-0.1,0.3-0.1,0.4,0l2.8,1.5c0.1,0.1,0.2,0.1,0.4,0.1
						c0.2,0,0.3-0.1,0.5-0.2c0.2-0.2,0.4-0.5,0.3-0.8l-0.5-3.2c0-0.1,0-0.3,0.1-0.4l2.3-2.2c0.2-0.2,0.3-0.5,0.2-0.8
						C105.8,11.8,105.5,11.6,105.2,11.6z"/>
					<path class="st0" d="M21.5,120.9l-3.2-0.5c-0.1,0-0.3-0.1-0.3-0.2l-1.4-2.9c-0.1-0.3-0.4-0.4-0.7-0.4c-0.3,0-0.6,0.2-0.7,0.4
						l-1.4,2.9c-0.1,0.1-0.2,0.2-0.3,0.2l-3.2,0.5c-0.3,0-0.5,0.3-0.6,0.5c-0.1,0.3,0,0.6,0.2,0.8l2.3,2.2c0.1,0.1,0.2,0.3,0.1,0.4
						l-0.5,3.2c-0.1,0.3,0.1,0.6,0.3,0.8c0.2,0.2,0.6,0.2,0.8,0.1l2.8-1.5c0.1-0.1,0.3-0.1,0.4,0l2.8,1.5c0.1,0.1,0.2,0.1,0.4,0.1
						c0.2,0,0.3-0.1,0.5-0.2c0.2-0.2,0.4-0.5,0.3-0.8l-0.5-3.2c0-0.1,0-0.3,0.1-0.4l2.3-2.2c0.2-0.2,0.3-0.5,0.2-0.8
						C22,121.2,21.8,121,21.5,120.9z"/>
				</g>
			</g>
		</g>
	</g>
</g>
</svg>
